<?xml version="1.0" encoding="UTF-8"?>
<svg id="katman_2" data-name="katman 2" xmlns="http://www.w3.org/2000/svg" viewBox="0 0 358.6 61">
  <defs>
    <style>
      .cls-1 {
        fill: #1c1d3e;
      }

      .cls-2 {
        fill: #fff;
      }

      .cls-3 {
        fill: #395ea7;
      }

      .cls-4 {
        fill: #0052c9;
      }

      .cls-5 {
        fill: #2575fc;
      }

      .cls-6 {
        fill: #2467c9;
      }

      .cls-7 {
        fill: #3a5fa8;
      }
    </style>
  </defs>
  <g id="katman_1" data-name="katman 1">
    <g>
      <g>
        <g>
          <path class="cls-4" d="m81.41,25.96c-.05.31-.22,1.5-.68,3.01-.58,1.9-1.37,3.72-2.32,5.47-.96,1.76-2.08,3.43-3.32,5-.72.92-1.5,1.79-2.25,2.68-.06.07-.12.18-.11.27.03.74-.19,1.46-.16,2.2.09,1.69.2,3.41.28,5.09.05,1.11.05,2.19.1,3.29.06,1.22.05,2.31.11,3.53,0,.09-.04.07-.04.2-.11.01-.12.11-.22.11-3.48,0-6.63-.04-10.1-.04-.07,0-.1.05-.18,0-.01-.04-.05.05-.01.05,3.52.01,6.98.06,10.47.06.11,0,.22-.09.34-.17,0-.13.01-.23,0-.32-.1-1.53-.21-3.07-.29-4.6-.05-.93-.04-1.86-.09-2.8-.12-2.44-.26-4.88-.38-7.32-.06-1.08-.1-2.17-.13-3.26.08-.06.15-.11.2-.17,2.2-2.72,4.06-5.64,5.36-8.89,1.37-3.41,2.07-6.93,1.63-10.62-.46-3.87-2.02-7.21-4.77-9.99-.36-.37-.71-.74-1.06-1.12,0,0,.03-.02.03-.02.17.13.35.24.5.39.87.86,1.79,1.67,2.57,2.6.89,1.05,1.71,2.17,2.46,3.32,1.49,2.28,1.87,4.49,2.04,5.34.58,2.91.25,5.24.02,6.73Z"/>
          <path class="cls-4" d="m60.81,48.85c0,1.52-.01,3.05-.02,4.57,0,.54,0,1.08-.03,1.66-.02.04-.05.04-.05.04v-3.21c-.52.29-.96.57-1.42.81-1.76.9-3.5,1.87-5.31,2.68-2.07.92-4.18,1.74-6.32,2.51-1.53.55-3.12.96-4.7,1.36-1.44.37-2.9.67-4.36.94-1.07.2-2.15.33-3.23.45-1.09.13-2.19.22-3.29.32-.12.01-.24,0-.37,0-1.53,0-3.07.04-4.6-.01-1.21-.04-2.41-.2-3.62-.31-1.76-.16-3.48-.49-5.17-1-1.45-.44-2.89-.93-4.3-1.49-1.8-.71-3.44-1.71-4.99-2.85-.62-.45-1.2-.96-1.75-1.49-.9-.86-1.77-1.76-2.65-2.64-.07-.07-.13-.17-.19-.28.17.1.36.21.5.37,1.74,1.88,3.81,3.31,6.09,4.44,2.86,1.41,5.88,2.34,9.03,2.81,1.62.24,3.26.39,4.89.51,3.52.26,7.03.02,10.5-.55,2.05-.34,4.07-.81,6.11-1.24.26-.05.51-.17.82-.29,1.71-.04,3.37-.04,5.04-.06.17,0,.34-.09.52-.17.11-.58.21-1.13.35-1.68.61-.22,1.21-.41,1.78-.65,3.56-1.49,6.98-3.23,10.23-5.33.15-.1.34-.15.52-.22Z"/>
        </g>
        <path class="cls-4" d="m23.8,55.19c.59.51,1.14,1.03,1.71,1.55-.1.06-.22.16-.34.16-3.04,0-6.07,0-9.11,0-.14,0-.33-.01-.42-.1-.49-.48-.96-.99-1.43-1.52.2-.05.4-.08.6-.08,2.99,0,5.98,0,9-.01Z"/>
        <path class="cls-4" d="m47.93,56.76c-.17.05-.34.14-.51.14-1.66.02-3.32.02-5.02.03-.75,0-1.47-.04-2.18-.02-.37,0-.64-.1-.88-.38-.37-.42-.77-.83-1.16-1.27.2-.04.4-.07.6-.07,2.47,0,4.94,0,7.46.01.34.32.62.63.92.92.24.23.51.42.77.63Z"/>
        <path class="cls-4" d="m61.17,55.73s-.05-.05-.08-.08c-.03-.03-.05-.05-.08-.08-.03-.03-.04-.05-.08-.08-.03-.05-.05-.1-.07-.17.17-.07.33-.12.5-.12,3.39,0,6.78,0,10.21,0,.59.51,1.15,1.03,1.73,1.55-.09.06-.2.15-.32.15-3.53,0-7.07,0-10.63-.01-.05-.03-.06-.05-.1-.07-.03-.03-.04-.05-.08-.08-.03-.03-.05-.05-.08-.08-.03-.03-.05-.05-.08-.08-.03-.03-.05-.05-.08-.08-.03-.03-.05-.05-.08-.08-.03-.03-.05-.05-.08-.08-.03-.03-.05-.05-.08-.08-.03-.03-.05-.05-.08-.08-.03-.03-.05-.05-.08-.08-.03-.03-.05-.05-.08-.08-.03-.03-.05-.05-.08-.08-.03-.03-.05-.05-.08-.08-.03-.03-.04-.06-.08-.09Z"/>
      </g>
      <path class="cls-7" d="m.04,40.15c.08.54.16,1.11.23,1.68.29,2.21,1.06,4.25,2.17,6.17.08.14.14.29.2.47-.39-.65-.83-1.31-1.17-2.02-.83-1.76-1.15-3.31-1.29-4.23-.13-.86-.15-1.58-.16-2.07Z"/>
      <path class="cls-3" d="m72.44,6.45c.25.16.48.34.72.55,0,.03,0,.06-.04.04-.26-.19-.49-.38-.72-.56,0,0,.02-.02.03-.03Z"/>
      <path class="cls-3" d="m73.26,7.09c.13.09.26.19.39.32,0,.03-.01.05-.04.04-.15-.12-.27-.22-.38-.34,0,0,.03-.02.03-.02Z"/>
      <path class="cls-3" d="m69.49.07s-.08,0-.14-.04c.03,0,.08,0,.14.04Z"/>
      <path class="cls-3" d="m69.9.48s-.05,0-.08-.03c.03-.01.05,0,.08.03Z"/>
      <path class="cls-3" d="m70.8,1.38s-.05,0-.08-.03c.03-.01.05,0,.08.03Z"/>
      <path class="cls-3" d="m69.98.56s-.05,0-.08-.03c.03-.01.05,0,.08.03Z"/>
      <path class="cls-3" d="m70.06.64s-.05,0-.08-.03c.03-.01.05,0,.08.03Z"/>
      <path class="cls-3" d="m70.14.73s-.05,0-.08-.03c.03-.01.05,0,.08.03Z"/>
      <path class="cls-3" d="m70.23.81s-.05,0-.08-.03c.03-.01.05,0,.08.03Z"/>
      <path class="cls-3" d="m70.31.89s-.05,0-.08-.03c.03-.01.05,0,.08.03Z"/>
      <path class="cls-3" d="m70.39.97s-.05,0-.08-.03c.03-.01.05,0,.08.03Z"/>
      <path class="cls-3" d="m70.47,1.05s-.05,0-.08-.03c.03-.01.05,0,.08.03Z"/>
      <path class="cls-3" d="m70.55,1.13s-.05,0-.08-.03c.03-.01.05,0,.08.03Z"/>
      <path class="cls-3" d="m70.64,1.21s-.06,0-.08-.03c.03-.01.06,0,.08.03Z"/>
      <path class="cls-3" d="m70.71,1.3s-.05,0-.08-.03c.03-.01.05,0,.08.03Z"/>
      <path class="cls-3" d="m70.88,1.46s-.06,0-.08-.03c.03-.01.06,0,.08.03Z"/>
      <path class="cls-3" d="m69.82.4s-.05,0-.08-.03c.03-.01.05,0,.08.03Z"/>
      <path class="cls-3" d="m73.17,7.02s.05.02.08.05c0,.02-.01.03-.03.03-.04-.02-.05-.03-.07-.05,0,0,.01-.02.02-.03Z"/>
      <path class="cls-3" d="m73.66,7.43s.05.02.08.06c0,.03-.01.04-.03.03-.03-.03-.05-.04-.07-.06,0,0,.01-.02.02-.03Z"/>
      <path class="cls-3" d="m73.74,7.51s.06.01.08.05c0,.02-.01.03-.03.03-.04-.02-.05-.04-.07-.06,0,0,.01-.01.02-.02Z"/>
      <path class="cls-3" d="m69.74.32s-.05,0-.08-.03c.03-.01.05,0,.08.03Z"/>
      <path class="cls-3" d="m69.66.24s-.05,0-.08-.03c.03-.01.05,0,.08.03Z"/>
      <path class="cls-3" d="m69.57.16s-.05,0-.08-.03c.03-.01.05,0,.08.03Z"/>
      <path class="cls-7" d="m2.66,48.54c.16.19.32.42.48.67-.16-.19-.32-.42-.48-.67Z"/>
      <path class="cls-7" d="m3.88,50.25c.13.11.27.25.4.42-.13-.11-.27-.25-.4-.42Z"/>
      <path class="cls-7" d="m3.32,49.52c.08.06.16.15.23.27-.08-.06-.15-.15-.23-.27Z"/>
      <path class="cls-7" d="m3.64,49.93c.08.06.16.15.24.27-.08-.06-.16-.15-.24-.27Z"/>
      <path class="cls-7" d="m3.15,49.27c.05.04.1.1.16.19-.05-.04-.1-.1-.16-.19Z"/>
      <path class="cls-3" d="m60.88,55.35s.06-.06.12-.04c.05.08.06.12.07.18-.01.01-.04.04-.04.04-.05-.05-.1-.1-.15-.18Z"/>
      <path class="cls-3" d="m60.71,55.15s.03-.03.05-.03c.03.03.05.06.06.12-.04,0-.07-.03-.1-.09Z"/>
      <path class="cls-3" d="m61.76,56.26s-.05-.02-.06-.08c0-.03.03-.05.04-.04.04.03.05.05.05.08-.01.01-.03.03-.03.03Z"/>
      <path class="cls-3" d="m62.43,56.9s-.06,0-.08-.06c0-.03.03-.05.04-.04.04.02.05.04.06.06,0,0-.02.02-.03.04Z"/>
      <path class="cls-3" d="m62.34,56.82s-.06-.02-.07-.06c0-.03.03-.05.04-.04.04.03.05.05.07.07,0,0-.02.02-.03.03Z"/>
      <path class="cls-3" d="m62.26,56.74s-.06-.01-.07-.06c0-.03.03-.05.04-.04.04.03.05.05.07.07,0,0-.02.02-.03.03Z"/>
      <path class="cls-3" d="m62.18,56.66s-.06-.01-.07-.06c0-.03.03-.05.04-.04.04.03.05.05.07.07,0,0-.02.02-.03.03Z"/>
      <path class="cls-3" d="m62.1,56.58s-.06-.02-.07-.06c0-.03.03-.05.04-.04.04.03.05.05.07.07,0,0-.02.02-.03.03Z"/>
      <path class="cls-3" d="m62.02,56.5s-.06-.01-.07-.06c0-.03.03-.05.04-.04.04.03.05.05.07.07,0,0-.02.02-.03.03Z"/>
      <path class="cls-3" d="m61.94,56.41s-.06-.01-.07-.06c0-.03.03-.05.04-.04.04.03.05.05.07.07,0,0-.02.02-.03.03Z"/>
      <path class="cls-3" d="m61.85,56.33s-.06,0-.09-.05c0-.02.02-.04.04-.04.05.02.06.04.08.06,0,0-.02.02-.03.03Z"/>
      <path class="cls-3" d="m61.19,55.69s-.04-.03-.06-.08c0-.03.03-.06.05-.05.04.03.05.05.05.08-.01.01-.04.04-.04.04Z"/>
      <path class="cls-3" d="m61.69,56.17s-.06-.01-.07-.06c0-.03.03-.05.04-.04.04.03.05.05.07.07,0,0-.02.02-.03.03Z"/>
      <path class="cls-3" d="m61.61,56.09s-.06-.02-.07-.06c0-.03.03-.05.04-.04.04.03.05.05.07.07,0,0-.02.02-.03.03Z"/>
      <path class="cls-3" d="m61.53,56.01s-.06-.01-.07-.06c0-.03.03-.05.04-.04.04.03.05.05.07.07,0,0-.02.02-.03.03Z"/>
      <path class="cls-3" d="m60.81,55.28s.07-.01.09.03c-.04.02-.07,0-.09-.03Z"/>
      <path class="cls-3" d="m61.45,55.92s-.06-.01-.07-.06c0-.03.03-.05.04-.04.04.03.05.05.07.07,0,0-.02.02-.03.03Z"/>
      <path class="cls-3" d="m61.36,55.84s-.06,0-.07-.06c0-.03.03-.06.05-.05.03.03.05.05.06.08,0,0-.02.02-.03.03Z"/>
      <path class="cls-3" d="m61.12,55.6s-.06,0-.09-.05c0-.02.02-.04.05-.04.05.01.06.03.08.06,0,0-.03.03-.04.04Z"/>
      <path class="cls-3" d="m61.28,55.76s-.06,0-.09-.05c0-.02.02-.05.05-.05.05.02.07.03.08.06,0,0-.03.03-.04.04Z"/>
      <path class="cls-7" d="m4.38,50.82s.04,0,.06.04c-.02.02-.04,0-.06-.04Z"/>
      <path class="cls-7" d="m3.56,49.84s.04,0,.06.04c-.02.02-.04,0-.06-.04Z"/>
      <path class="cls-7" d="m4.3,50.73s.04,0,.06.04c-.02.02-.04,0-.06-.04Z"/>
      <g>
        <path class="cls-5" d="m.21,35.95c.22-1.5.56-2.61.79-3.36.35-1.15.78-2.29,1.31-3.36.74-1.5,1.53-2.97,2.43-4.38.75-1.18,1.64-2.29,2.55-3.37,1.1-1.31,2.25-2.58,3.46-3.79,1.03-1.02,2.14-1.97,3.27-2.88,1.8-1.47,2.44-1.63,3.79-2.9.67-.63.9-.94,1.92-1.86.72-.65.84-.71,1-1,.43-.78.14-1.41,0-3-.11-1.35-.04-2.47,0-3,.11-1.61.4-2.83,0-3-.08-.04-.17-.02-.24,0,.02.26.02.47,0,.69-.28,3.12-.52,6.25-.86,9.37-.51,4.61-1.09,9.22-1.67,13.83-.65,5.16-1.34,10.31-2.01,15.47-.4,3.12-.81,6.25-1.19,9.37-.25,2.01-.47,4.02-.69,6.03-.02.14.09.3.15.47.48.53.94,1.03,1.43,1.52.09.09.28.1.42.1,3.04,0,6.07,0,9.11,0,.12,0,.25-.1.37-.19.09-1.94.15-3.84.25-5.73.2-3.58.41-7.15.65-10.73.26-4.01.55-8.02.81-12.02.24-3.71.45-7.42.69-11.14.02-.39.09-.78.14-1.13.87,4.74,2.09,9.36,3.39,13.96,1.73,6.11,3.49,12.22,5.2,18.34.61,2.21,1.17,4.44,1.36,6.74,0,.09.09.18.15.29.39.44.79.84,1.16,1.27.24.28.51.38.88.38.71-.02,1.43.01,2.13.05-.27.11-.52.23-.78.29-2.03.42-4.06.9-6.11,1.24-3.48.57-6.98.81-10.5.55-1.64-.12-3.27-.26-4.89-.51-3.15-.47-6.17-1.4-9.03-2.81-2.28-1.13-4.35-2.56-6.09-4.44-.14-.15-.33-.27-.5-.4,0,0,0,0-.01-.02-.02-.04-.04-.05-.07-.06,0,0,0,0-.01-.02-.02-.04-.04-.06-.06-.06,0,0,0,0,0-.03-.13-.17-.27-.31-.4-.46,0,0,0,0,0-.03-.08-.12-.16-.21-.24-.3,0,0,0,0-.01-.02-.02-.04-.04-.05-.07-.06,0,0,0,0,0-.03-.08-.12-.16-.21-.24-.3,0,0,0,0,0-.03-.05-.09-.11-.15-.16-.21,0,0,0,0,0-.03-.16-.26-.32-.48-.48-.7,0,0,0,0,0-.03-.07-.18-.12-.33-.2-.47-1.12-1.92-1.88-3.96-2.17-6.17-.08-.57-.16-1.15-.23-1.72-.11-1.7.01-3.13.17-4.17Z"/>
        <path class="cls-5" d="m54.95,0c-.29,3.91-1.39,7.66-2.55,11.38-1.57,5.03-3.26,10.01-4.87,15.03-1.18,3.67-2.32,7.35-3.16,11.12-.01.05-.03.1-.07.16-.06-.14-.11-.28-.14-.43-.88-4.03-1.51-6.48-1.93-8.75-.74-4.05-1.57-4.79-2.18-6.63-.41-1.25-.3-1.56-.59-2.9-.56-2.53-1.15-2.52-1.75-4.93-.41-1.68-.68-2.74-.53-4.18.1-1.02.3-2.02,0-3.04-.2-.67-.48-1.08-.76-2.28-.22-.92-.22-1.39,0-1.52.09-.06.21-.04.29-.01,1.17-.29,2.28-.6,3.42-.83,1.46-.3,2.92-.55,4.39-.79.9-.15,1.8-.27,2.7-.39.4-.05.81-.08,1.21-.09,1.58-.06,3.17-.12,4.75-.16.39-.01.78.03,1.17.07.11.01.25,0,.38-.08.26-.18.23-.62.21-.74Z"/>
        <path class="cls-5" d="m73.71,7.52s.05.05.07.08c.37.39.72.76,1.08,1.13,2.74,2.78,4.31,6.12,4.77,9.99.44,3.69-.26,7.21-1.63,10.62-1.31,3.25-3.17,6.17-5.36,8.89-.05.06-.12.11-.2.17-.09-.94-.17-1.88-.22-2.83-.2-3.77-.42-7.54-.6-11.31-.18-3.82-.35-7.65-.49-11.48-.09-2.36-.11-4.72-.15-7.12.47.24.92.52,1.41.81.26.19.49.38.74.57.04.03.06.04.09.07.13.12.25.22.4.34.04.03.06.04.09.07Z"/>
        <path class="cls-5" d="m60.82,48.82c-.18.11-.37.15-.53.25-3.24,2.09-6.67,3.84-10.23,5.33-.57.24-1.17.43-1.78.62,0-.19.03-.35.07-.51,1.22-4.81,2.88-9.49,4.5-14.17,2.65-7.66,5.26-15.34,7.1-23.25.04-.18.13-.35.19-.53.05,2.4.11,4.8.16,7.2.13,5.45.27,10.91.39,16.36.06,2.89.08,5.78.11,8.7Z"/>
      </g>
      <g>
        <path class="cls-6" d="m71.62,55.18c-.06-1.53-.1-3.07-.17-4.6-.08-1.75-.19-3.5-.29-5.25-.17-3.06-.34-6.13-.51-9.19-.17-3.1-.34-6.21-.51-9.31-.14-2.73-.29-5.45-.41-8.18-.12-2.7-.25-5.4-.31-8.1-.09-3.49-.11-6.98-.17-10.51.01-.04.03-.04.08-.02.08.04.12.05.16.07,0,0,.01-.02,0,.02.02.04.05.05.07.06,0,0,0,0,0,.02.02.04.05.05.08.06,0,0,0,0,0,.02.02.04.05.05.08.06,0,0,0,0,0,.02.02.04.05.05.08.06,0,0,0,0,0,.02.02.04.05.05.08.06,0,0,0,0,0,.02.02.04.05.05.08.06,0,0,0,0,0,.02.02.04.05.05.08.06,0,0,0,0,0,.02.02.04.05.05.08.06,0,0,0,0,0,.02.02.04.05.05.08.06,0,0,0,0,0,.02.02.04.05.05.08.06,0,0,0,0,0,.02.02.04.05.05.08.06,0,0,0,0,0,.02.02.04.05.05.08.06,0,0,0,0,0,.02.02.04.05.05.08.06,0,0,0,0,0,.02.02.04.05.05.08.05,0,0,0,0,0,.03.02.04.05.05.08.06,0,0,0,0,0,.03.03.03.06.04.08.05,0,0,0,0,0,.03.03.03.05.04.08.05,0,0,0,0,0,.03.01.56.03,1.08.05,1.6.02.84.04,1.67.05,2.55.04,2.4.07,4.76.15,7.12.14,3.83.3,7.65.49,11.48.18,3.77.39,7.54.6,11.31.05.95.13,1.89.2,2.84.05,1.08.09,2.17.15,3.25.13,2.44.26,4.88.38,7.32.05.93.04,1.86.09,2.8.08,1.53.19,3.07.29,4.6,0,.09,0,.19-.03.31-.58-.49-1.12-1-1.67-1.51Z"/>
        <path class="cls-6" d="m23.84,55.18c.08-1.91.15-3.83.25-5.74.14-2.64.31-5.29.47-7.93.11-1.82.22-3.63.35-5.45.18-2.57.36-5.15.54-7.72.12-1.76.24-3.52.35-5.29.16-2.63.33-5.26.48-7.89.1-1.74.17-3.47.25-5.21,0-.2-.03-.43.29-.44.3,0,.3.21.33.41.31,1.97.63,3.94.94,5.95-.05.42-.11.81-.14,1.2-.23,3.71-.44,7.42-.69,11.14-.26,4.01-.55,8.02-.81,12.02-.23,3.58-.45,7.15-.65,10.73-.11,1.9-.17,3.8-.28,5.73-.58-.48-1.13-1-1.68-1.51Z"/>
        <path class="cls-6" d="m60.17,16.52c-.08.2-.16.37-.21.56-1.84,7.91-4.45,15.59-7.1,23.25-1.62,4.68-3.28,9.36-4.5,14.17-.04.16-.07.32-.1.51-.1.58-.2,1.13-.32,1.71-.27-.18-.54-.37-.78-.6-.3-.29-.58-.6-.89-.92.28-1.43.47-2.87.9-4.24,1.47-4.66,2.98-9.31,4.57-13.94,2.71-7.91,5.29-15.85,7.09-24.02.23-1.05.44-2.1.66-3.15.04-.22.14-.38.37-.31.11.03.25.21.25.32.03,2.21.05,4.42.06,6.66Z"/>
        <path class="cls-6" d="m36.42,1.51s.05.05.08.08c.1.94.13,1.88.29,2.8.53,3.01,1.01,6.03,1.7,9.01,1.17,5.05,2.52,10.07,3.74,15.11.7,2.9,1.29,5.84,1.93,8.75.03.15.08.29.13.46-.16,1.23-.34,2.44-.54,3.64-.02.11-.19.2-.29.29-.09-.11-.26-.21-.26-.32-.17-4.04-1.11-7.96-2.03-11.87-1.1-4.65-2.33-9.28-3.47-13.92-1.02-4.13-2-8.27-2.55-12.49-.12-.94-.13-1.89-.18-2.88.35.27.69.59,1.05.92.06.06.11.11.17.17.03.03.05.05.08.08.06.06.1.1.16.17Z"/>
      </g>
      <path class="cls-2" d="m38.18,55.24c-.05-.09-.13-.17-.14-.26-.19-2.3-.75-4.53-1.36-6.74-1.7-6.12-3.47-12.22-5.2-18.34-1.3-4.6-2.53-9.22-3.39-13.99-.31-2.04-.63-4.01-.94-5.98-.03-.2-.03-.42-.33-.41-.32.01-.28.24-.29.44-.08,1.74-.15,3.47-.25,5.21-.15,2.63-.31,5.26-.48,7.89-.11,1.76-.23,3.52-.35,5.29-.18,2.57-.37,5.15-.54,7.72-.12,1.82-.24,3.63-.35,5.45-.16,2.64-.33,5.29-.47,7.93-.1,1.91-.17,3.83-.29,5.74-3.03,0-6.01,0-9,.01-.2,0-.4.04-.6.06-.05-.15-.16-.31-.14-.45.22-2.01.45-4.02.69-6.03.39-3.13.79-6.25,1.19-9.37.67-5.16,1.36-10.31,2.01-15.47.58-4.61,1.16-9.21,1.67-13.83.35-3.12.58-6.24.86-9.37.02-.22.02-.43.03-.69C22.47,0,24.43,0,26.38,0c2.82,0,5.65,0,8.52.03.05.05.06.08.06.15.05.98.06,1.94.18,2.88.56,4.22,1.53,8.36,2.55,12.49,1.15,4.64,2.37,9.26,3.47,13.92.92,3.91,1.86,7.83,2.03,11.87,0,.11.17.21.26.32.1-.1.27-.18.29-.29.2-1.2.37-2.41.56-3.65.02-.08.05-.13.06-.19.84-3.77,1.97-7.45,3.16-11.12,1.62-5.01,3.31-10,4.87-15.03,1.16-3.72,2.25-7.46,2.58-11.37,1.67,0,3.33-.01,5-.01,3.06,0,6.13,0,9.23.05.09,3.53.12,7.02.21,10.51.07,2.7.19,5.4.31,8.1.12,2.73.27,5.45.41,8.18.16,3.1.34,6.21.51,9.31.17,3.06.34,6.13.51,9.19.1,1.75.21,3.5.29,5.25.07,1.53.11,3.07.13,4.6-3.38,0-6.72,0-10.06,0-.16,0-.33.06-.52.09-.06.01-.08.03-.11.04,0,0,0,.01,0-.02-.02-.04-.06-.04-.09-.05,0,0,0,0,0-.02,0-.06-.02-.09-.04-.15,0-.58.01-1.12.02-1.66,0-1.52.01-3.05.03-4.6-.03-2.92-.05-5.81-.11-8.7-.12-5.45-.26-10.91-.39-16.36-.06-2.4-.11-4.8-.15-7.23,0-2.24-.02-4.45-.06-6.66,0-.11-.14-.29-.25-.32-.23-.07-.33.1-.37.31-.21,1.05-.43,2.1-.66,3.15-1.8,8.17-4.38,16.12-7.09,24.02-1.59,4.62-3.09,9.28-4.57,13.94-.43,1.36-.62,2.81-.95,4.21-2.51,0-4.97,0-7.44.01-.2,0-.4.03-.6.05Z"/>
    </g>
    <g>
      <g>
        <path class="cls-1" d="m90.47,7.93h4.04l4.27,10.41h.18l4.27-10.41h4.04v15.49h-3.18v-10.08h-.13l-4.01,10.01h-2.16l-4.01-10.05h-.13v10.12h-3.18V7.93Z"/>
        <path class="cls-1" d="m115.15,23.65c-1.18,0-2.19-.25-3.05-.75-.85-.5-1.51-1.2-1.98-2.1-.46-.9-.7-1.95-.7-3.14s.23-2.25.7-3.15c.46-.9,1.12-1.6,1.98-2.1.86-.5,1.87-.75,3.05-.75s2.19.25,3.04.75,1.51,1.2,1.98,2.1.7,1.95.7,3.15-.23,2.24-.7,3.14-1.12,1.6-1.98,2.1-1.87.75-3.04.75Zm.01-2.5c.54,0,.98-.15,1.34-.46.36-.3.63-.72.81-1.25.18-.53.28-1.13.28-1.81s-.09-1.28-.28-1.81c-.18-.53-.46-.95-.81-1.26-.36-.31-.8-.46-1.34-.46s-.99.15-1.36.46c-.37.31-.64.73-.83,1.26-.18.53-.28,1.13-.28,1.81s.09,1.28.28,1.81.46.95.83,1.25c.37.31.82.46,1.36.46Z"/>
        <path class="cls-1" d="m126.2,7.93v15.49h-3.22V7.93h3.22Z"/>
        <path class="cls-1" d="m134.06,23.65c-1.2,0-2.22-.24-3.08-.73-.86-.49-1.52-1.18-1.99-2.07-.46-.9-.7-1.96-.7-3.18s.23-2.24.7-3.15c.46-.9,1.12-1.61,1.96-2.11s1.84-.76,2.98-.76c.77,0,1.48.12,2.15.37s1.24.61,1.74,1.1c.5.49.88,1.1,1.16,1.84.28.74.42,1.6.42,2.59v.89h-9.81v-2h6.78c0-.46-.1-.88-.3-1.23-.2-.36-.48-.64-.84-.84-.36-.21-.77-.31-1.24-.31s-.92.11-1.3.34c-.38.22-.67.52-.88.9-.21.38-.32.79-.33,1.25v1.9c0,.58.11,1.07.32,1.49.21.42.52.74.91.97.39.23.86.34,1.4.34.36,0,.69-.05.98-.15.3-.1.55-.25.76-.45s.37-.45.48-.74l2.98.2c-.15.72-.46,1.34-.93,1.87s-1.07.95-1.8,1.24c-.73.29-1.58.44-2.54.44Z"/>
        <path class="cls-1" d="m141.5,23.42V7.93h3.22v15.49h-3.22Zm2.92-3.34v-3.87h.48l3.72-4.41h3.7l-5,5.84h-.76l-2.13,2.44Zm4.34,3.34l-3.42-5.06,2.15-2.28,5.05,7.34h-3.78Z"/>
        <path class="cls-1" d="m161.35,18.47v-6.67h3.22v11.62h-3.09v-2.11h-.12c-.26.68-.7,1.23-1.31,1.64-.61.41-1.35.62-2.22.62-.78,0-1.46-.18-2.05-.53-.59-.35-1.05-.86-1.38-1.51s-.5-1.43-.5-2.34v-7.4h3.22v6.82c0,.69.19,1.23.55,1.63s.85.6,1.46.6c.39,0,.75-.09,1.09-.27s.61-.45.82-.8c.21-.35.31-.79.31-1.31Zm-4.4-8.26c-.43,0-.81-.15-1.12-.46-.31-.3-.47-.67-.47-1.08s.16-.79.47-1.09c.31-.3.69-.45,1.12-.45s.81.15,1.12.45c.3.3.46.66.46,1.09s-.15.78-.46,1.08-.68.46-1.12.46Zm4.63,0c-.43,0-.81-.15-1.12-.46-.31-.3-.47-.67-.47-1.08s.16-.79.47-1.09.69-.45,1.12-.45.81.15,1.12.45c.31.3.46.66.46,1.09s-.15.78-.46,1.08c-.3.31-.68.46-1.12.46Z"/>
        <path class="cls-1" d="m170.36,7.93v15.49h-3.22V7.93h3.22Z"/>
        <path class="cls-1" d="m177.35,10.63v-2.7h12.73v2.7h-4.74v12.79h-3.24v-12.79h-4.74Z"/>
        <path class="cls-1" d="m195.72,23.65c-1.2,0-2.22-.24-3.08-.73-.86-.49-1.52-1.18-1.99-2.07-.46-.9-.7-1.96-.7-3.18s.23-2.24.7-3.15c.46-.9,1.12-1.61,1.96-2.11s1.84-.76,2.98-.76c.77,0,1.48.12,2.15.37s1.24.61,1.74,1.1c.5.49.88,1.1,1.16,1.84.28.74.42,1.6.42,2.59v.89h-9.81v-2h6.78c0-.46-.1-.88-.3-1.23-.2-.36-.48-.64-.84-.84-.36-.21-.77-.31-1.24-.31s-.92.11-1.3.34c-.38.22-.67.52-.88.9-.21.38-.32.79-.33,1.25v1.9c0,.58.11,1.07.32,1.49.21.42.52.74.91.97.39.23.86.34,1.4.34.36,0,.69-.05.98-.15.3-.1.55-.25.76-.45s.37-.45.48-.74l2.98.2c-.15.72-.46,1.34-.93,1.87s-1.07.95-1.8,1.24c-.73.29-1.58.44-2.54.44Z"/>
        <path class="cls-1" d="m203.15,23.42V7.93h3.22v15.49h-3.22Zm2.92-3.34v-3.87h.48l3.72-4.41h3.7l-5,5.84h-.76l-2.13,2.44Zm4.34,3.34l-3.42-5.06,2.15-2.28,5.05,7.34h-3.78Z"/>
        <path class="cls-1" d="m218.77,16.7v6.72h-3.22v-11.62h3.07v2.05h.14c.26-.68.69-1.21,1.29-1.61.6-.4,1.34-.59,2.2-.59.81,0,1.51.18,2.11.53.6.35,1.07.86,1.4,1.51s.5,1.43.5,2.33v7.4h-3.22v-6.82c0-.71-.18-1.27-.54-1.67-.37-.4-.88-.6-1.52-.6-.43,0-.82.09-1.15.28-.33.19-.59.46-.77.81-.18.36-.28.78-.28,1.28Z"/>
        <path class="cls-1" d="m234.04,23.65c-1.18,0-2.19-.25-3.05-.75-.85-.5-1.51-1.2-1.98-2.1-.46-.9-.7-1.95-.7-3.14s.23-2.25.7-3.15c.46-.9,1.12-1.6,1.98-2.1.86-.5,1.87-.75,3.05-.75s2.19.25,3.04.75,1.51,1.2,1.98,2.1.7,1.95.7,3.15-.23,2.24-.7,3.14-1.12,1.6-1.98,2.1-1.87.75-3.04.75Zm.01-2.5c.54,0,.98-.15,1.34-.46.36-.3.63-.72.81-1.25.18-.53.28-1.13.28-1.81s-.09-1.28-.28-1.81c-.18-.53-.46-.95-.81-1.26-.36-.31-.8-.46-1.34-.46s-.99.15-1.36.46c-.37.31-.64.73-.83,1.26-.18.53-.28,1.13-.28,1.81s.09,1.28.28,1.81.46.95.83,1.25c.37.31.82.46,1.36.46Z"/>
        <path class="cls-1" d="m245.09,7.93v15.49h-3.22V7.93h3.22Z"/>
        <path class="cls-1" d="m252.91,23.65c-1.18,0-2.19-.25-3.05-.75-.85-.5-1.51-1.2-1.98-2.1-.46-.9-.7-1.95-.7-3.14s.23-2.25.7-3.15c.46-.9,1.12-1.6,1.98-2.1.86-.5,1.87-.75,3.05-.75s2.19.25,3.04.75,1.51,1.2,1.98,2.1.7,1.95.7,3.15-.23,2.24-.7,3.14-1.12,1.6-1.98,2.1-1.87.75-3.04.75Zm.01-2.5c.54,0,.98-.15,1.34-.46.36-.3.63-.72.81-1.25.18-.53.28-1.13.28-1.81s-.09-1.28-.28-1.81c-.18-.53-.46-.95-.81-1.26-.36-.31-.8-.46-1.34-.46s-.99.15-1.36.46c-.37.31-.64.73-.83,1.26-.18.53-.28,1.13-.28,1.81s.09,1.28.28,1.81.46.95.83,1.25c.37.31.82.46,1.36.46Z"/>
        <path class="cls-1" d="m260.74,11.8h3.22v12.2c0,.9-.18,1.62-.53,2.18-.35.55-.86.96-1.52,1.22-.66.26-1.44.39-2.36.39-.11,0-.22,0-.32,0-.1,0-.21,0-.33-.01v-2.52c.09,0,.16,0,.22.01.06,0,.13,0,.2,0,.52,0,.88-.11,1.09-.33.21-.22.31-.55.31-.99v-12.14Zm1.6-1.5c-.47,0-.88-.16-1.23-.48-.34-.32-.51-.7-.51-1.15s.17-.83.51-1.15c.34-.32.75-.48,1.23-.48s.9.16,1.24.48c.34.32.51.7.51,1.15s-.17.83-.51,1.15c-.34.32-.75.48-1.24.48Z"/>
        <path class="cls-1" d="m268.15,10.3c-.48,0-.89-.16-1.23-.48s-.51-.7-.51-1.15.17-.83.51-1.15.75-.48,1.23-.48.89.16,1.23.48.51.7.51,1.15-.17.83-.51,1.15-.75.48-1.23.48Zm-1.62,13.12v-11.62h3.22v11.62h-3.22Z"/>
        <path class="cls-1" d="m286.9,7.93h3.28v10.06c0,1.13-.27,2.12-.81,2.97-.54.85-1.29,1.51-2.25,1.98-.96.47-2.09.71-3.37.71s-2.41-.24-3.37-.71c-.96-.47-1.71-1.13-2.25-1.98-.53-.85-.8-1.84-.8-2.97V7.93h3.28v9.78c0,.59.13,1.11.39,1.57s.63.82,1.1,1.08c.47.26,1.03.39,1.66.39s1.19-.13,1.66-.39c.47-.26.84-.62,1.1-1.08s.39-.98.39-1.57V7.93Zm-5.45-1.59c-.43,0-.81-.15-1.12-.46-.31-.31-.47-.67-.47-1.09s.16-.79.47-1.09c.31-.3.69-.45,1.12-.45s.81.15,1.12.45c.31.3.46.66.46,1.09s-.15.78-.46,1.09-.68.46-1.12.46Zm4.63,0c-.43,0-.81-.15-1.12-.46-.31-.31-.47-.67-.47-1.09s.16-.79.47-1.09c.31-.3.69-.45,1.12-.45s.81.15,1.12.45c.3.3.46.66.46,1.09s-.15.78-.46,1.09c-.31.3-.68.46-1.12.46Z"/>
        <path class="cls-1" d="m292.81,23.42v-11.62h3.12v2.03h.12c.21-.72.57-1.27,1.07-1.64.5-.37,1.07-.56,1.72-.56.16,0,.34,0,.52.03.19.02.35.05.49.08v2.86c-.15-.04-.36-.08-.63-.12-.27-.04-.51-.05-.73-.05-.47,0-.9.1-1.27.31-.37.2-.66.49-.88.85-.21.36-.32.78-.32,1.26v6.57h-3.22Z"/>
        <path class="cls-1" d="m308.97,18.47v-6.67h3.22v11.62h-3.09v-2.11h-.12c-.26.68-.7,1.23-1.31,1.64-.61.41-1.35.62-2.22.62-.78,0-1.46-.18-2.05-.53-.59-.35-1.05-.86-1.38-1.51s-.5-1.43-.5-2.34v-7.4h3.22v6.82c0,.69.19,1.23.55,1.63s.85.6,1.46.6c.39,0,.75-.09,1.09-.27s.61-.45.82-.8c.21-.35.31-.79.31-1.31Zm-4.4-8.26c-.43,0-.81-.15-1.12-.46-.31-.3-.47-.67-.47-1.08s.16-.79.47-1.09c.31-.3.69-.45,1.12-.45s.81.15,1.12.45c.3.3.46.66.46,1.09s-.15.78-.46,1.08-.68.46-1.12.46Zm4.63,0c-.43,0-.81-.15-1.12-.46-.31-.3-.47-.67-.47-1.08s.16-.79.47-1.09.69-.45,1.12-.45.81.15,1.12.45c.31.3.46.66.46,1.09s-.15.78-.46,1.08c-.3.31-.68.46-1.12.46Z"/>
        <path class="cls-1" d="m317.98,16.7v6.72h-3.22v-11.62h3.07v2.05h.14c.26-.68.69-1.21,1.29-1.61.6-.4,1.34-.59,2.2-.59.81,0,1.51.18,2.11.53.6.35,1.07.86,1.4,1.51s.5,1.43.5,2.33v7.4h-3.22v-6.82c0-.71-.18-1.27-.54-1.67-.37-.4-.88-.6-1.52-.6-.43,0-.82.09-1.15.28-.33.19-.59.46-.77.81-.18.36-.28.78-.28,1.28Z"/>
        <path class="cls-1" d="m331.23,7.93v15.49h-3.22V7.93h3.22Z"/>
        <path class="cls-1" d="m339.1,23.65c-1.2,0-2.22-.24-3.08-.73-.86-.49-1.52-1.18-1.99-2.07-.46-.9-.7-1.96-.7-3.18s.23-2.24.7-3.15c.46-.9,1.12-1.61,1.96-2.11s1.84-.76,2.98-.76c.77,0,1.48.12,2.15.37s1.24.61,1.74,1.1c.5.49.88,1.1,1.16,1.84.28.74.42,1.6.42,2.59v.89h-9.81v-2h6.78c0-.46-.1-.88-.3-1.23-.2-.36-.48-.64-.84-.84-.36-.21-.77-.31-1.24-.31s-.92.11-1.3.34c-.38.22-.67.52-.88.9-.21.38-.32.79-.33,1.25v1.9c0,.58.11,1.07.32,1.49.21.42.52.74.91.97.39.23.86.34,1.4.34.36,0,.69-.05.98-.15.3-.1.55-.25.76-.45s.37-.45.48-.74l2.98.2c-.15.72-.46,1.34-.93,1.87s-1.07.95-1.8,1.24c-.73.29-1.58.44-2.54.44Z"/>
        <path class="cls-1" d="m346.54,23.42v-11.62h3.12v2.03h.12c.21-.72.57-1.27,1.07-1.64.5-.37,1.07-.56,1.72-.56.16,0,.34,0,.52.03.19.02.35.05.49.08v2.86c-.15-.04-.36-.08-.63-.12-.27-.04-.51-.05-.73-.05-.47,0-.9.1-1.27.31-.37.2-.66.49-.88.85-.21.36-.32.78-.32,1.26v6.57h-3.22Z"/>
        <path class="cls-1" d="m356.86,10.3c-.48,0-.89-.16-1.23-.48s-.51-.7-.51-1.15.17-.83.51-1.15.75-.48,1.23-.48.89.16,1.23.48.51.7.51,1.15-.17.83-.51,1.15-.75.48-1.23.48Zm-1.62,13.12v-11.62h3.22v11.62h-3.22Z"/>
      </g>
      <g>
        <path class="cls-1" d="m100.08,36.51c-.08-.72-.43-1.28-1.04-1.68-.61-.4-1.35-.6-2.23-.6-.64,0-1.21.1-1.69.31s-.85.5-1.12.86-.4.78-.4,1.24c0,.39.09.72.28,1,.19.28.43.51.72.69.29.18.6.33.92.45.32.12.62.21.89.28l1.48.4c.38.1.8.24,1.27.41.47.18.91.41,1.34.71s.78.69,1.06,1.15.42,1.04.42,1.73c0,.79-.21,1.5-.61,2.13-.41.63-1.01,1.14-1.79,1.51-.78.37-1.73.56-2.85.56-1.04,0-1.94-.17-2.7-.5-.76-.34-1.36-.8-1.79-1.41-.43-.6-.68-1.3-.73-2.09h1.82c.05.55.23,1,.56,1.36s.74.62,1.24.79c.5.17,1.04.26,1.62.26.67,0,1.28-.11,1.81-.33.54-.22.96-.53,1.27-.92s.47-.86.47-1.39c0-.48-.13-.88-.41-1.18-.27-.3-.62-.55-1.07-.74s-.92-.36-1.43-.5l-1.79-.51c-1.14-.33-2.04-.79-2.7-1.4-.66-.61-.99-1.4-.99-2.38,0-.81.22-1.53.66-2.13s1.04-1.08,1.79-1.42c.75-.34,1.59-.51,2.52-.51s1.77.17,2.5.5c.73.33,1.31.79,1.74,1.37.43.58.65,1.23.68,1.97h-1.71Z"/>
        <path class="cls-1" d="m107.86,47.68c-.69,0-1.32-.13-1.88-.39s-1.01-.64-1.34-1.14c-.33-.5-.5-1.1-.5-1.81,0-.62.12-1.13.37-1.52.25-.39.58-.7.99-.92.41-.22.87-.39,1.37-.5.5-.11,1-.2,1.51-.27.66-.08,1.2-.15,1.62-.2.42-.04.72-.12.91-.23.19-.11.29-.3.29-.57v-.06c0-.7-.19-1.25-.57-1.63-.38-.39-.96-.58-1.73-.58s-1.43.18-1.88.53c-.45.35-.77.72-.96,1.12l-1.59-.57c.28-.66.66-1.18,1.14-1.55.48-.37,1-.63,1.56-.78.57-.15,1.12-.22,1.67-.22.35,0,.75.04,1.21.12s.9.25,1.33.51.79.64,1.07,1.16c.28.52.43,1.21.43,2.07v7.19h-1.68v-1.48h-.08c-.11.24-.3.49-.57.76-.27.27-.62.5-1.06.69s-.98.28-1.61.28Zm.26-1.51c.66,0,1.22-.13,1.68-.39s.8-.6,1.04-1.01.35-.84.35-1.3v-1.53c-.07.09-.23.16-.47.23-.24.07-.51.13-.82.18-.31.05-.61.09-.9.13-.29.04-.53.06-.71.09-.44.06-.84.15-1.22.27-.38.13-.68.31-.91.56s-.34.59-.34,1.01c0,.58.22,1.02.65,1.32.43.3.98.44,1.65.44Z"/>
        <path class="cls-1" d="m120.33,51.74c-.81,0-1.51-.1-2.09-.31-.58-.21-1.07-.48-1.45-.81-.39-.33-.69-.69-.92-1.07l1.33-.94c.15.2.34.43.58.69.23.26.55.48.96.67.41.19.94.29,1.59.29.88,0,1.61-.21,2.18-.64.57-.43.86-1.09.86-2v-2.22h-.14c-.12.2-.3.44-.52.73-.23.29-.55.55-.97.77s-.98.34-1.69.34c-.88,0-1.67-.21-2.37-.62-.7-.42-1.25-1.02-1.66-1.82-.4-.8-.61-1.76-.61-2.9s.2-2.09.59-2.92c.39-.83.94-1.48,1.64-1.93.7-.46,1.51-.68,2.43-.68.71,0,1.28.12,1.69.35s.74.5.97.79c.22.3.4.54.52.73h.17v-1.73h1.62v11.22c0,.94-.21,1.7-.64,2.29-.42.59-.99,1.02-1.7,1.3-.71.28-1.5.42-2.38.42Zm-.06-5.99c.67,0,1.24-.15,1.7-.46s.82-.75,1.06-1.33c.24-.58.36-1.27.36-2.07s-.12-1.48-.36-2.08c-.24-.6-.59-1.07-1.05-1.41s-1.04-.51-1.72-.51-1.3.18-1.77.54c-.47.36-.82.84-1.06,1.45-.23.61-.35,1.28-.35,2.02s.12,1.43.36,2.01.59,1.03,1.07,1.36c.47.33,1.06.49,1.76.49Zm1.62-12.87h1.56c0,.77-.27,1.39-.8,1.88-.53.49-1.25.73-2.16.73s-1.61-.24-2.13-.73c-.53-.49-.79-1.12-.79-1.88h1.56c0,.37.1.69.31.97.21.28.56.42,1.05.42s.85-.14,1.07-.42.32-.6.32-.97Z"/>
        <path class="cls-1" d="m129.79,32.88v14.55h-1.68v-14.55h1.68Z"/>
        <path class="cls-1" d="m132.86,47.42v-10.91h1.68v10.91h-1.68Z"/>
        <path class="cls-1" d="m137.61,47.42v-14.55h1.68v14.55h-1.68Zm1.56-3.98l-.03-2.07h.34l4.77-4.86h2.07l-5.08,5.14h-.14l-1.93,1.79Zm5.37,3.98l-4.26-5.4,1.19-1.17,5.2,6.56h-2.13Z"/>
        <path class="cls-1" d="m166.61,40.15c0,1.53-.28,2.86-.83,3.98-.55,1.12-1.31,1.98-2.28,2.59-.97.61-2.07.91-3.31.91s-2.34-.3-3.31-.91c-.97-.61-1.73-1.47-2.28-2.59-.55-1.12-.83-2.44-.83-3.98s.28-2.86.83-3.98c.55-1.12,1.31-1.98,2.28-2.58.97-.61,2.07-.91,3.31-.91s2.34.3,3.31.91c.97.61,1.73,1.47,2.28,2.58s.83,2.44.83,3.98Zm-1.71,0c0-1.26-.21-2.32-.63-3.19-.42-.87-.99-1.52-1.7-1.97-.71-.45-1.51-.67-2.39-.67s-1.68.22-2.39.67-1.28,1.1-1.7,1.97c-.42.87-.63,1.93-.63,3.19s.21,2.32.63,3.19.98,1.52,1.7,1.97,1.51.67,2.39.67,1.68-.22,2.39-.67c.71-.45,1.28-1.1,1.7-1.97s.63-1.93.63-3.19Z"/>
        <path class="cls-1" d="m174.08,36.51v1.42h-5.65v-1.42h5.65Zm-4.01-2.61h1.68v10.4c0,.47.07.83.21,1.06s.32.39.54.47c.22.08.45.12.7.12.18,0,.34-.01.46-.03.12-.02.21-.04.28-.05l.34,1.51c-.11.04-.27.09-.48.13-.2.04-.46.07-.77.07-.47,0-.94-.1-1.39-.3-.45-.2-.83-.51-1.12-.93s-.44-.94-.44-1.58v-10.85Z"/>
        <path class="cls-1" d="m180.93,47.65c-.98,0-1.85-.23-2.59-.7s-1.32-1.12-1.73-1.97c-.42-.84-.62-1.83-.62-2.95s.21-2.13.62-2.98c.41-.85.99-1.5,1.73-1.97s1.6-.7,2.59-.7,1.85.23,2.59.7,1.32,1.13,1.73,1.97c.41.85.62,1.84.62,2.98s-.21,2.11-.62,2.95c-.42.84-.99,1.5-1.73,1.97s-1.6.7-2.59.7Zm0-1.51c.75,0,1.36-.19,1.85-.58s.84-.89,1.07-1.51c.23-.62.35-1.3.35-2.03s-.12-1.41-.35-2.04c-.23-.63-.59-1.14-1.07-1.53-.48-.39-1.1-.58-1.85-.58s-1.36.19-1.85.58c-.48.39-.84.9-1.07,1.53-.23.63-.35,1.31-.35,2.04s.12,1.41.35,2.03.59,1.13,1.07,1.51c.48.38,1.1.58,1.85.58Z"/>
        <path class="cls-1" d="m188.43,47.42v-10.91h1.62v1.71h.14c.23-.58.59-1.04,1.1-1.36s1.12-.49,1.83-.49,1.32.16,1.8.49c.48.32.86.78,1.12,1.36h.11c.28-.56.7-1.01,1.26-1.35.56-.33,1.23-.5,2.01-.5.98,0,1.77.3,2.39.91s.93,1.55.93,2.84v7.3h-1.68v-7.3c0-.81-.22-1.38-.66-1.73s-.96-.52-1.56-.52c-.77,0-1.36.23-1.78.69-.42.46-.63,1.04-.63,1.75v7.1h-1.71v-7.47c0-.62-.2-1.12-.6-1.5s-.92-.57-1.56-.57c-.44,0-.84.12-1.22.35-.38.23-.68.55-.91.96-.23.41-.34.88-.34,1.42v6.82h-1.68Z"/>
        <path class="cls-1" d="m209.03,47.68c-.69,0-1.32-.13-1.88-.39s-1.01-.64-1.34-1.14c-.33-.5-.5-1.1-.5-1.81,0-.62.12-1.13.37-1.52.25-.39.58-.7.99-.92.41-.22.87-.39,1.37-.5.5-.11,1-.2,1.51-.27.66-.08,1.2-.15,1.62-.2.42-.04.72-.12.91-.23.19-.11.29-.3.29-.57v-.06c0-.7-.19-1.25-.57-1.63-.38-.39-.96-.58-1.73-.58s-1.43.18-1.88.53c-.45.35-.77.72-.96,1.12l-1.59-.57c.28-.66.66-1.18,1.14-1.55.48-.37,1-.63,1.56-.78.57-.15,1.12-.22,1.67-.22.35,0,.75.04,1.21.12s.9.25,1.33.51.79.64,1.07,1.16c.28.52.43,1.21.43,2.07v7.19h-1.68v-1.48h-.08c-.11.24-.3.49-.57.76-.27.27-.62.5-1.06.69s-.98.28-1.61.28Zm.26-1.51c.66,0,1.22-.13,1.68-.39s.8-.6,1.04-1.01.35-.84.35-1.3v-1.53c-.07.09-.23.16-.47.23-.24.07-.51.13-.82.18-.31.05-.61.09-.9.13-.29.04-.53.06-.71.09-.44.06-.84.15-1.22.27-.38.13-.68.31-.91.56s-.34.59-.34,1.01c0,.58.22,1.02.65,1.32.43.3.98.44,1.65.44Z"/>
        <path class="cls-1" d="m224.82,38.96l-1.51.43c-.09-.25-.23-.5-.42-.73-.18-.24-.43-.44-.74-.59s-.71-.23-1.2-.23c-.67,0-1.22.15-1.67.46-.44.31-.66.69-.66,1.16,0,.42.15.75.45.99.3.24.78.44,1.42.6l1.62.4c.98.24,1.7.6,2.18,1.08.48.49.72,1.11.72,1.87,0,.62-.18,1.18-.54,1.68-.36.49-.86.88-1.5,1.16-.64.28-1.38.43-2.23.43-1.11,0-2.03-.24-2.76-.72-.73-.48-1.19-1.19-1.39-2.12l1.59-.4c.15.59.44,1.03.86,1.32.42.29.98.44,1.67.44.78,0,1.4-.17,1.86-.5.46-.33.69-.73.69-1.2,0-.38-.13-.7-.4-.96-.26-.26-.67-.45-1.22-.58l-1.82-.43c-1-.24-1.73-.6-2.2-1.1-.47-.5-.7-1.12-.7-1.88,0-.62.17-1.16.52-1.63s.82-.84,1.43-1.12c.6-.27,1.29-.4,2.06-.4,1.08,0,1.93.24,2.55.71.62.47,1.06,1.1,1.32,1.88Z"/>
        <path class="cls-1" d="m228.63,51.51c-.28,0-.54-.02-.76-.07s-.38-.09-.46-.13l.43-1.48c.41.1.77.14,1.08.11s.59-.17.83-.42c.24-.25.47-.65.67-1.2l.31-.85-4.03-10.97h1.82l3.01,8.69h.11l3.01-8.69h1.82l-4.63,12.5c-.21.56-.47,1.03-.77,1.4-.31.37-.66.65-1.07.83-.4.18-.86.27-1.37.27Z"/>
        <path class="cls-1" d="m242.72,47.65c-.98,0-1.85-.23-2.59-.7s-1.32-1.12-1.73-1.97c-.42-.84-.62-1.83-.62-2.95s.21-2.13.62-2.98c.41-.85.99-1.5,1.73-1.97s1.6-.7,2.59-.7,1.85.23,2.59.7,1.32,1.13,1.73,1.97c.41.85.62,1.84.62,2.98s-.21,2.11-.62,2.95c-.42.84-.99,1.5-1.73,1.97s-1.6.7-2.59.7Zm0-1.51c.75,0,1.36-.19,1.85-.58s.84-.89,1.07-1.51c.23-.62.35-1.3.35-2.03s-.12-1.41-.35-2.04c-.23-.63-.59-1.14-1.07-1.53-.48-.39-1.1-.58-1.85-.58s-1.36.19-1.85.58c-.48.39-.84.9-1.07,1.53-.23.63-.35,1.31-.35,2.04s.12,1.41.35,2.03.59,1.13,1.07,1.51c.48.38,1.1.58,1.85.58Z"/>
        <path class="cls-1" d="m251.9,40.86v6.56h-1.68v-10.91h1.62v1.71h.14c.25-.55.64-1,1.16-1.34.52-.34,1.19-.51,2.02-.51.74,0,1.38.15,1.94.45.55.3.99.76,1.29,1.36s.46,1.38.46,2.3v6.93h-1.68v-6.82c0-.86-.22-1.53-.67-2.01-.45-.48-1.06-.72-1.83-.72-.54,0-1.01.12-1.43.35-.42.23-.75.57-.99,1.02s-.36.98-.36,1.62Z"/>
        <path class="cls-1" d="m275.73,36.51c-.08-.72-.43-1.28-1.04-1.68-.61-.4-1.35-.6-2.23-.6-.64,0-1.21.1-1.69.31s-.85.5-1.12.86-.4.78-.4,1.24c0,.39.09.72.28,1,.19.28.43.51.72.69.29.18.6.33.92.45.32.12.62.21.89.28l1.48.4c.38.1.8.24,1.27.41.47.18.91.41,1.34.71s.78.69,1.06,1.15.42,1.04.42,1.73c0,.79-.21,1.5-.61,2.13-.41.63-1.01,1.14-1.79,1.51-.78.37-1.73.56-2.85.56-1.04,0-1.94-.17-2.7-.5-.76-.34-1.36-.8-1.79-1.41-.43-.6-.68-1.3-.73-2.09h1.82c.05.55.23,1,.56,1.36s.74.62,1.24.79c.5.17,1.04.26,1.62.26.67,0,1.28-.11,1.81-.33.54-.22.96-.53,1.27-.92s.47-.86.47-1.39c0-.48-.13-.88-.41-1.18-.27-.3-.62-.55-1.07-.74s-.92-.36-1.43-.5l-1.79-.51c-1.14-.33-2.04-.79-2.7-1.4-.66-.61-.99-1.4-.99-2.38,0-.81.22-1.53.66-2.13s1.04-1.08,1.79-1.42c.75-.34,1.59-.51,2.52-.51s1.77.17,2.5.5c.73.33,1.31.79,1.74,1.37.43.58.65,1.23.68,1.97h-1.71Z"/>
        <path class="cls-1" d="m281.16,34.69c-.33,0-.61-.11-.84-.33-.23-.22-.35-.49-.35-.8s.12-.58.35-.8.51-.33.84-.33.61.11.84.33.35.49.35.8-.12.58-.35.8c-.23.22-.51.33-.84.33Zm-.85,12.73v-10.91h1.68v10.91h-1.68Z"/>
        <path class="cls-1" d="m292.78,38.96l-1.51.43c-.09-.25-.23-.5-.42-.73-.18-.24-.43-.44-.74-.59s-.71-.23-1.2-.23c-.67,0-1.22.15-1.67.46-.44.31-.66.69-.66,1.16,0,.42.15.75.45.99.3.24.78.44,1.42.6l1.62.4c.98.24,1.7.6,2.18,1.08.48.49.72,1.11.72,1.87,0,.62-.18,1.18-.54,1.68-.36.49-.86.88-1.5,1.16-.64.28-1.38.43-2.23.43-1.11,0-2.03-.24-2.76-.72-.73-.48-1.19-1.19-1.39-2.12l1.59-.4c.15.59.44,1.03.86,1.32.42.29.98.44,1.67.44.78,0,1.4-.17,1.86-.5.46-.33.69-.73.69-1.2,0-.38-.13-.7-.4-.96-.26-.26-.67-.45-1.22-.58l-1.82-.43c-1-.24-1.73-.6-2.2-1.1-.47-.5-.7-1.12-.7-1.88,0-.62.17-1.16.52-1.63s.82-.84,1.43-1.12c.6-.27,1.29-.4,2.06-.4,1.08,0,1.93.24,2.55.71.62.47,1.06,1.1,1.32,1.88Z"/>
        <path class="cls-1" d="m300.25,36.51v1.42h-5.65v-1.42h5.65Zm-4.01-2.61h1.68v10.4c0,.47.07.83.21,1.06s.32.39.54.47c.22.08.45.12.7.12.18,0,.34-.01.46-.03.12-.02.21-.04.28-.05l.34,1.51c-.11.04-.27.09-.48.13-.2.04-.46.07-.77.07-.47,0-.94-.1-1.39-.3-.45-.2-.83-.51-1.12-.93s-.44-.94-.44-1.58v-10.85Z"/>
        <path class="cls-1" d="m307.24,47.65c-1.05,0-1.96-.23-2.72-.7-.76-.47-1.34-1.12-1.75-1.96-.41-.84-.61-1.82-.61-2.94s.21-2.1.61-2.96c.41-.85.98-1.52,1.72-2s1.6-.72,2.58-.72c.57,0,1.13.09,1.68.28.55.19,1.06.5,1.51.92.45.42.82.98,1.09,1.68.27.7.41,1.55.41,2.57v.71h-8.41v-1.45h6.71c0-.62-.12-1.17-.37-1.65-.24-.48-.59-.86-1.04-1.14s-.97-.42-1.58-.42c-.67,0-1.24.17-1.73.49s-.86.76-1.12,1.28c-.26.53-.39,1.09-.39,1.69v.97c0,.82.14,1.52.43,2.09.29.57.68,1,1.2,1.3s1.11.44,1.78.44c.44,0,.84-.06,1.2-.19.36-.12.67-.31.93-.57.26-.25.46-.57.6-.95l1.62.46c-.17.55-.46,1.03-.86,1.45-.4.41-.9.74-1.49.97s-1.26.34-2,.34Z"/>
        <path class="cls-1" d="m314.31,47.42v-10.91h1.62v1.71h.14c.23-.58.59-1.04,1.1-1.36s1.12-.49,1.83-.49,1.32.16,1.8.49c.48.32.86.78,1.12,1.36h.11c.28-.56.7-1.01,1.26-1.35.56-.33,1.23-.5,2.01-.5.98,0,1.77.3,2.39.91s.93,1.55.93,2.84v7.3h-1.68v-7.3c0-.81-.22-1.38-.66-1.73s-.96-.52-1.56-.52c-.77,0-1.36.23-1.78.69-.42.46-.63,1.04-.63,1.75v7.1h-1.71v-7.47c0-.62-.2-1.12-.6-1.5s-.92-.57-1.56-.57c-.44,0-.84.12-1.22.35-.38.23-.68.55-.91.96-.23.41-.34.88-.34,1.42v6.82h-1.68Z"/>
        <path class="cls-1" d="m333.37,32.88v14.55h-1.68v-14.55h1.68Z"/>
        <path class="cls-1" d="m341.01,47.65c-1.05,0-1.96-.23-2.72-.7-.76-.47-1.34-1.12-1.75-1.96-.41-.84-.61-1.82-.61-2.94s.21-2.1.61-2.96c.41-.85.98-1.52,1.72-2s1.6-.72,2.58-.72c.57,0,1.13.09,1.68.28.55.19,1.06.5,1.51.92.45.42.82.98,1.09,1.68.27.7.41,1.55.41,2.57v.71h-8.41v-1.45h6.71c0-.62-.12-1.17-.37-1.65-.24-.48-.59-.86-1.04-1.14s-.97-.42-1.58-.42c-.67,0-1.24.17-1.73.49s-.86.76-1.12,1.28c-.26.53-.39,1.09-.39,1.69v.97c0,.82.14,1.52.43,2.09.29.57.68,1,1.2,1.3s1.11.44,1.78.44c.44,0,.84-.06,1.2-.19.36-.12.67-.31.93-.57.26-.25.46-.57.6-.95l1.62.46c-.17.55-.46,1.03-.86,1.45-.4.41-.9.74-1.49.97s-1.26.34-2,.34Z"/>
        <path class="cls-1" d="m348.09,47.42v-10.91h1.62v1.65h.11c.2-.54.56-.98,1.08-1.31s1.11-.5,1.76-.5c.12,0,.28,0,.46,0s.32.01.42.02v1.7c-.06-.01-.19-.04-.39-.07-.2-.03-.41-.05-.64-.05-.53,0-1,.11-1.42.33-.41.22-.74.52-.98.91-.24.39-.36.83-.36,1.32v6.9h-1.68Z"/>
        <path class="cls-1" d="m356.38,34.69c-.33,0-.61-.11-.84-.33-.23-.22-.35-.49-.35-.8s.12-.58.35-.8.51-.33.84-.33.61.11.84.33.35.49.35.8-.12.58-.35.8c-.23.22-.51.33-.84.33Zm-.85,12.73v-10.91h1.68v10.91h-1.68Z"/>
      </g>
    </g>
  </g>
</svg>